<?xml version="1.0" encoding="utf-8"?>
<svg width="100%" height="100%" viewBox="0 0 512 512" version="1.1" style="fill-rule:evenodd;clip-rule:evenodd;stroke-linejoin:round;stroke-miterlimit:1.41421;" xmlns="http://www.w3.org/2000/svg" xmlns:xlink="http://www.w3.org/1999/xlink">
  <rect x="-5.195" y="-6.349" width="523.545" height="527.008" style="fill: rgb(62, 160, 166);"/>
  <g transform="matrix(10.2933,0,0,10.2933,-685.635,-380.357)">
    <path d="M110.901,73.477C110.901,72.037 110.397,70.669 109.389,69.373C108.381,68.077 106.917,67.429 104.997,67.429C104.229,67.429 103.437,67.549 102.621,67.789C101.805,68.029 100.965,68.485 100.101,69.157C99.525,68.293 99.237,66.901 99.237,64.981C99.237,61.909 100.101,59.629 101.829,58.141C103.557,56.653 106.101,55.573 109.461,54.901L109.461,53.461C107.157,53.461 104.925,53.821 102.765,54.541C100.605,55.261 98.733,56.317 97.149,57.709C95.565,59.101 94.293,60.757 93.333,62.677C92.373,64.597 91.893,66.757 91.893,69.157C91.893,72.325 92.853,75.061 94.773,77.365C96.693,79.669 99.285,80.821 102.549,80.821C104.757,80.821 106.701,80.197 108.381,78.949C110.061,77.701 110.901,75.877 110.901,73.477ZM90.453,73.477C90.453,72.037 89.949,70.669 88.941,69.373C87.933,68.077 86.469,67.429 84.549,67.429C83.781,67.429 82.989,67.549 82.173,67.789C81.357,68.029 80.517,68.485 79.653,69.157C79.077,68.101 78.789,66.709 78.789,64.981C78.789,61.909 79.653,59.629 81.381,58.141C83.109,56.653 85.653,55.573 89.013,54.901L89.013,53.461C86.709,53.461 84.477,53.821 82.317,54.541C80.157,55.261 78.285,56.317 76.701,57.709C75.117,59.101 73.893,60.757 73.029,62.677C72.165,64.597 71.733,66.757 71.733,69.157C71.733,72.325 72.645,75.061 74.469,77.365C76.293,79.669 78.837,80.821 82.101,80.821C84.309,80.821 86.253,80.197 87.933,78.949C89.613,77.701 90.453,75.877 90.453,73.477Z" style="fill:white;fill-rule:nonzero;"/>
  </g>
</svg>
